<svg xmlns="http://www.w3.org/2000/svg" viewBox="0 0 432.31 432.31"><defs><style>.cls-1{fill:#fecc01;}.cls-2{fill:#f7a70d;}.cls-3{fill:#1d1d1b;}.cls-4{fill:none;}</style></defs><g id="yellow"><circle class="cls-1" cx="162.12" cy="270.19" r="162.12"/></g><g id="squiggle"><path class="cls-2" d="M304.39,91.46c1.95,2.37,4.87,4.16,7.48,5.71a110.36,110.36,0,0,0,27.7,11.26c10,2.68,20.95,4.48,31.22,2.36l.21-.06a27.7,27.7,0,0,1,2.49,13.77c-.89,11.26-7.87,17.55-17.12,20.39-9.79-11.43-23.95-19.83-37.4-25.7-7-3.06-30.42-12.27-30.31,3.14.07,9.74,7.7,18.37,15.2,23.62,8.93,6.24,19.94,9.43,30.69,10.5a62.83,62.83,0,0,0,17.58-.72,21.3,21.3,0,0,1,2.4,4.42c1.3,3.49,1.2,6.09-.38,8.61-2.1,3.35-6.35,5.53-10.37,7.31-5.68,2.53-11.68,4.73-17.17,7.65-10.42,5.52-15.19,17.66-13.64,28.92.74,5.3,1.64,10.58,2.46,15.87,1,6.37,10.68,3.91,9.7-2.41-1.46-9.45-5.27-20.88,1.22-29.25,3-3.82,7-5.22,11.22-7.1,4.49-2,9-3.94,13.47-6,6.17-2.84,11.93-7.89,13.76-14.65,1.5-5.59,0-11.28-2.73-16.23,10.38-4.16,18.74-11.88,20.9-24.11a37.05,37.05,0,0,0-2.79-21.83,21.56,21.56,0,0,0,9.34-13.36c3.68-16.24-8.77-28.91-18.78-40-4.9-5.41-10.15-10.85-16.28-14.89-5.37-3.54-10.52,5-5.15,8.57,10.22,6.74,18.37,17.57,25.81,27.12,5.21,6.68,8.08,18.3,0,24-6.69-9-16.63-16.11-27-20.31-11.48-4.66-24.29-5.12-35.77-.23C306.92,80.2,298.88,84.76,304.39,91.46Zm-6.69,32.23h0Zm0,0Zm12.06,14.19c-4.54-3-8.64-7.23-10.37-12.52-.11-.35-.24-1-.37-1.6a29.2,29.2,0,0,1,8.07,1.54,86.3,86.3,0,0,1,13.36,5.59,105.34,105.34,0,0,1,23.69,15.87C331.43,147.06,317.71,143.21,309.74,137.87ZM321.9,85.18a34.36,34.36,0,0,1,11.57-.67c7.55.8,14.71,3.95,21,8.12a54.4,54.4,0,0,1,10.55,9,55.06,55.06,0,0,1-11.81-.57A106.39,106.39,0,0,1,328,94a82.35,82.35,0,0,1-11-5.39c-.59-.35-1.18-.71-1.76-1.08.47-.23.94-.45,1.42-.66A32.07,32.07,0,0,1,321.9,85.18Zm-9.65.07c-.8-.73-.38-1.28,0,0Z"/></g><g id="Layer_1" data-name="Layer 1"><path class="cls-3" d="M90.84,102v28.73c0,4.81-.53,9.94,0,14.73.57,5.23,4.82,5.3,9,5.3H108v45.86c0,2.42,1.6,4,3.67,4.82l.34.14a4.89,4.89,0,0,0,4.86-1.29l29-29,17.67-17.66c.54-.55,2.25-1.8,3.25-2.87,6,.38,12.28,0,18.33,0h42.19v8.33c0,4.53.91,8.41,6.36,8.63,7.07.29,14.22,0,21.31,0h23.35c.53,0,1.78.19,2.84.22.87,1,2,1.9,2.87,2.78L295.23,182l12.87,12.92c2,2,4.56,5.62,7.55,6.22a5.21,5.21,0,0,0,5.64-2.3c1.3-1.93,1-4.28,1-6.49V168a75.34,75.34,0,0,0,11.55-.1c6.33-.75,5.56-6.59,5.56-11.26V115.81c0-4.36-.09-8.81-5.73-9.41a91.61,91.61,0,0,0-9.52,0H253.83V62.84c0-4.12-1.25-7.46-6.05-7.65-3.72-.15-7.48,0-11.21,0H130.09c-11,0-22-.4-33,0a6.36,6.36,0,0,0-4.64,1.56l0,0-.07.06,0,0a4.28,4.28,0,0,0-1.08,1.57,4.51,4.51,0,0,0-.35,1.88V102Zm221.43,92.56a1.21,1.21,0,0,0,0,.19C312.43,196.23,311.77,195.77,312.27,194.55Zm6.91-2.65c.69.46.92,1,0,0Zm10.21-75.5v41.43c-3.32,0-6.63-.05-9.95,0-5.33.11-7.16,3.2-7.16,8.09v19l-4.75-4.77-18.27-18.34c-1.49-1.5-3-3.38-5.08-4s-5.11-.18-7.4-.18H237.23v-7h1.92c3.43,0,10.25,1.2,13-1.47s1.66-9.33,1.66-12.84v-20ZM230,65.2h13.85v75.54l-65.35,0c-5.91,0-14.29-1.77-18.88,2.62-8.66,8.28-17,17-25.43,25.43L118,185V155.82c0-4.14,1.59-12.59-3.27-14.63-2.66-1.12-6.52-.44-9.32-.44h-4.52V65.22Z"/><path class="cls-3" d="M121.47,85.79H223.73c3.22,0,3.22-5,0-5H121.47C118.25,80.79,118.25,85.79,121.47,85.79Z"/><path class="cls-3" d="M121.47,105.4H223.73c3.22,0,3.22-5,0-5H121.47C118.25,100.4,118.25,105.4,121.47,105.4Z"/><path class="cls-3" d="M121.47,125H223.73c3.22,0,3.22-5,0-5H121.47C118.25,120,118.25,125,121.47,125Z"/><path class="cls-3" d="M205.54,217.41c-19.75,4.47-30.43,25-30.73,43.86.28,17.27,8.77,35.16,25.4,42.1,15.73,6.57,32.78-.11,42.41-13.55,10.66-14.9,11.54-35.81,3.18-51.94C238.18,223.19,222.17,213.64,205.54,217.41ZM237.47,279c-5.41,10.88-16.65,19.27-29.27,16.48-9.33-2.05-15.85-8.84-19.59-17.1a5,5,0,0,0-.29-1.65c-3.08-9.19-4-17.43-.84-26.62a4.41,4.41,0,0,0,0-3.25c2.88-7.89,8.16-14.79,16.07-18.31,11.6-5.15,24.37.2,31.23,10.3A40.89,40.89,0,0,1,237.47,279Z"/><path class="cls-3" d="M189.06,302.51c.43.15.23.07,0,0Z"/><path class="cls-3" d="M300.87,218.43c-15,3.39-24.73,16-28.71,30.14a44.67,44.67,0,0,0-1.46,6.88,54.53,54.53,0,0,0-.56,6.84c.28,17.27,8.77,35.16,25.4,42.1,15.73,6.57,32.78-.11,42.41-13.55,10.66-14.9,11.54-35.81,3.18-51.95C333.51,224.21,317.5,214.66,300.87,218.43ZM332.8,280c-5.41,10.88-16.65,19.27-29.27,16.48-9.77-2.15-16.45-9.49-20.1-18.28a4.93,4.93,0,0,0-.27-2c-3.08-9.2-4-17.43-.84-26.62a5.46,5.46,0,0,0,.26-1.12c2.83-8.13,8.17-15.29,16.27-18.89,11.6-5.15,24.37.2,31.22,10.3A40.9,40.9,0,0,1,332.8,280Z"/><path class="cls-3" d="M390.8,353.54c-1-10.62-3.54-21.41-9.21-30.57a42.28,42.28,0,0,0-29.23-19.73,55.09,55.09,0,0,0-11.82-.77,8.46,8.46,0,0,0-4.88,1.54c1.54-.91-.06,0-.71.43a46.05,46.05,0,0,1-23,7.32,45.32,45.32,0,0,1-26.17-7l-1.7-1.06a9.27,9.27,0,0,0-5-1.28,51.3,51.3,0,0,0-15.24,1.68,47.41,47.41,0,0,0-13.75-2.66,23.63,23.63,0,0,0-8.76.74s-1.53,1-.9.66c-.65.43-1.29.87-1.95,1.27a45.53,45.53,0,0,1-17.59,6.24,46.48,46.48,0,0,1-22.85-2.72,41.64,41.64,0,0,1-7-3.51c-.61-.38-1.19-.77-1.78-1.17-.85-.58-.51-.55-.21-.47l-.82-.29c-5.11-1.92-12-.76-17.27.28a46.36,46.36,0,0,0-5.26,1.4l-.46-.12c-4.93-1-10.89-2.09-15.92-1.25a8,8,0,0,0-3,1.11c-.22.13-1.61,1-1.88,1.15a45.77,45.77,0,0,1-47.39.78c-.9-.54-1.76-1.12-2.63-1.71l-.56-.41c2,1.38,0-.14-.28-.22C90,302,85.86,302.32,82,302.7,69.14,304,57.9,310,50.34,320.55c-6.3,8.82-9.2,19.62-10.52,30.24a94.77,94.77,0,0,0-.74,12.71c0,2.61-.31,6.8,1.78,8.67,4.23,3.76,10.26-1.29,8.3-5.47a81.34,81.34,0,0,1,.57-16.31,2.47,2.47,0,0,0,1.15.27H85.4c3.22,0,3.22-5,0-5H50.88a1.65,1.65,0,0,0-.32,0q.57-2.76,1.38-5.45H85.4c3.22,0,3.22-5,0-5H53.7A48.64,48.64,0,0,1,57.36,328c5.8-9.36,15.43-14.7,26.36-15.46,1.1-.07,4.74.44,5.43-.1h.26a42.76,42.76,0,0,0,5,3.05A55.77,55.77,0,0,0,145,316a54.68,54.68,0,0,0,6.44-3.8,6.54,6.54,0,0,0,.52-.4c-.22.19-.44.38-.65.58l-.13.1h0a48.15,48.15,0,0,0-11.47,16.67,69.41,69.41,0,0,0-4,13,92.86,92.86,0,0,0-1.9,13.71c-.24,3.71-1.68,13,1.58,15.89,3.47,3.09,8.15.24,8.64-3.2a4,4,0,0,0-.2-2.83,79.46,79.46,0,0,1,.54-15.25,2.53,2.53,0,0,0,1,.19h34.51c3.22,0,3.23-5,0-5H145.3a1.33,1.33,0,0,0-.21,0c0-.15,0-.31.08-.45.21-1,.44-2,.69-3.05v0c.16-.64.36-1.28.54-1.92h33.4c3.22,0,3.23-5,0-5H148.05a38.36,38.36,0,0,1,10.74-15.85,30.35,30.35,0,0,1,10.43-5.66,39.76,39.76,0,0,1,6.84-1.51c1.32-.17,2.67-.24,4-.29l1.79,0h1.23a6.8,6.8,0,0,0,1,.1l.78.55a44,44,0,0,0,5.56,3.13,57.23,57.23,0,0,0,19.1,5.33,55.39,55.39,0,0,0,35-8.29l1.1-.67c-.19-.14-.14-.3.39-.25l.58-.39a3,3,0,0,0,.68,0,1.34,1.34,0,0,1-.31.5c.47,0,1,0,1.43,0,1.55,0,3.1.09,4.64.26a38.16,38.16,0,0,1,4.38.75,4.18,4.18,0,0,0,5.4,2l.45-.14a31.84,31.84,0,0,1,2.88,1.4c6.84,3.8,11.67,10.09,14.75,17.21a60.91,60.91,0,0,1,3.37,10.36,78.63,78.63,0,0,1,1.64,21.91,4.07,4.07,0,0,0-.22,2.88c.48,3.44,5.16,6.29,8.64,3.2,2.81-2.51,1.84-9.89,1.72-13.2-.12-2.87-.34-5.75-.69-8.63h30.43c3.22,0,3.23-5,0-5h-31.2c-.22-1.25-.48-2.51-.76-3.75-.13-.55-.26-1.11-.4-1.66h32.36c3.22,0,3.23-5,0-5H291.93a49.81,49.81,0,0,0-14.14-22.18,3.69,3.69,0,0,0,1-.25l.12.09c.7.48,1.39,1,2.11,1.44a53.56,53.56,0,0,0,20.84,7.54c12.8,1.87,28.65-.52,39.21-8.78a.6.6,0,0,1,.08.08c.4.31,2.55,0,3.08,0a44.62,44.62,0,0,1,4.62.32,36.36,36.36,0,0,1,9.61,2.53,31.12,31.12,0,0,1,11.87,9c6,7.3,8.78,16.87,10.09,26a82.82,82.82,0,0,1,.72,16.36c-1.95,4.18,4.07,9.23,8.3,5.47C393.16,368.86,391.2,357.66,390.8,353.54Z"/><path class="cls-3" d="M284.08,303.73l.5.28C283.82,303.56,283.81,303.55,284.08,303.73Z"/><path class="cls-3" d="M105.62,304.39c15.73,6.57,32.78-.11,42.4-13.55,10.66-14.9,11.55-35.81,3.18-51.95-7.61-14.68-23.62-24.23-40.26-20.46-19.74,4.47-30.42,25-30.72,43.86C80.49,279.56,89,297.45,105.62,304.39Zm3.31-74.81c11.6-5.15,24.36.2,31.22,10.3A40.87,40.87,0,0,1,142.87,280c-5.4,10.88-16.64,19.27-29.27,16.48-9.57-2.11-16.19-9.21-19.88-17.77a5,5,0,0,0-.27-2c-3.08-9.19-4-17.43-.84-26.62a4.84,4.84,0,0,0,.25-2.24C95.74,240,101,233.1,108.93,229.58Z"/><path class="cls-3" d="M145.73,304l.65-.37C146.48,303.57,146.34,303.66,145.73,304Z"/><path class="cls-3" d="M245.94,311.81l-.39.25a1.13,1.13,0,0,0,1.34-.1,2.3,2.3,0,0,1-.39,0Z"/><rect class="cls-4" width="432.31" height="432.31"/></g></svg>